HIERARCHY
ROOT Hips
{
	OFFSET -3.958830 18.904000 13.208200
	CHANNELS 6 Xposition Yposition Zposition Zrotation Yrotation Xrotation 
	JOINT LHipJoint
	{
		OFFSET 0.000000 0.000000 0.000000
		CHANNELS 3 Zrotation Yrotation Xrotation
		JOINT LeftUpLeg
		{
			OFFSET 1.800000 -1.400000 0.085000
			CHANNELS 3 Zrotation Yrotation Xrotation
			JOINT LeftLeg
			{
				OFFSET 2.215000 -6.000000 0.000000
				CHANNELS 3 Zrotation Yrotation Xrotation
				JOINT LeftFoot
				{
					OFFSET 2.500000 -6.900000 0.000000
					CHANNELS 3 Zrotation Yrotation Xrotation
					JOINT LeftToeBase
					{
						OFFSET 0.200000 -0.500000 1.950000
						CHANNELS 3 Zrotation Yrotation Xrotation
						End Site
						{
							OFFSET 0.000000 0.000000 0.000000
						}
					}
				}
			}
		}
	}
	JOINT RHipJoint
	{
		OFFSET 0.000000 0.000000 0.000000
		CHANNELS 3 Zrotation Yrotation Xrotation
		JOINT RightUpLeg
		{
			OFFSET -1.800000 -1.400000 0.085000
			CHANNELS 3 Zrotation Yrotation Xrotation
			JOINT RightLeg
			{
				OFFSET -2.215000 -6.000000 0.000000
				CHANNELS 3 Zrotation Yrotation Xrotation
				JOINT RightFoot
				{
					OFFSET -2.500000 -6.900000 0.000000
					CHANNELS 3 Zrotation Yrotation Xrotation
					JOINT RightToeBase
					{
						OFFSET -0.200000 -0.500000 1.950000
						CHANNELS 3 Zrotation Yrotation Xrotation
						End Site
						{
							OFFSET 0.000000 0.000000 0.000000
						}
					}
				}
			}
		}
	}
	JOINT LowerBack
	{
		OFFSET 0.000000 0.000000 0.000000
		CHANNELS 3 Zrotation Yrotation Xrotation
		JOINT Spine
		{
			OFFSET -0.087000 1.940000 -0.288900
			CHANNELS 3 Zrotation Yrotation Xrotation
			JOINT Spine1
			{
				OFFSET 0.000000 1.950000 0.060000
				CHANNELS 3 Zrotation Yrotation Xrotation
				JOINT Neck
				{
					OFFSET 0.000000 0.000000 0.000000
					CHANNELS 3 Zrotation Yrotation Xrotation
					JOINT Neck1
					{
						OFFSET 0.000000 1.600000 0.340000
						CHANNELS 3 Zrotation Yrotation Xrotation
						JOINT Head
						{
							OFFSET 0.000000 1.667000 -0.240000
							CHANNELS 3 Zrotation Yrotation Xrotation
							End Site
							{
								OFFSET 0.000000 0.000000 0.000000
							}
						}
					}
				}
				JOINT LeftShoulder
				{
					OFFSET 0.000000 0.000000 0.000000
					CHANNELS 3 Zrotation Yrotation Xrotation
					JOINT LeftArm
					{
						OFFSET 2.700000 1.550000 -0.730000
						CHANNELS 3 Zrotation Yrotation Xrotation
						JOINT LeftForeArm
						{
							OFFSET 5.450000 0.000000 0.000000
							CHANNELS 3 Zrotation Yrotation Xrotation
							JOINT LeftHand
							{
								OFFSET 3.450000 0.000000 0.000000
								CHANNELS 3 Zrotation Yrotation Xrotation
								JOINT LeftHandIndex1
								{
									OFFSET 0.750000 0.000000 0.000000
									CHANNELS 3 Zrotation Yrotation Xrotation
									End Site
									{
										OFFSET 0.000000 0.000000 0.000000
									}
								}
							}
						}
					}
				}
				JOINT RightShoulder
				{
					OFFSET 0.000000 0.000000 0.000000
					CHANNELS 3 Zrotation Yrotation Xrotation
					JOINT RightArm
					{
						OFFSET -2.700000 1.550000 -0.730000
						CHANNELS 3 Zrotation Yrotation Xrotation
						JOINT RightForeArm
						{
							OFFSET -5.450000 0.000000 0.000000
							CHANNELS 3 Zrotation Yrotation Xrotation
							JOINT RightHand
							{
								OFFSET -3.450000 0.000000 0.000000
								CHANNELS 3 Zrotation Yrotation Xrotation
								JOINT RightHandIndex1
								{
									OFFSET -0.750000 0.000000 0.000000
									CHANNELS 3 Zrotation Yrotation Xrotation
									End Site
									{
										OFFSET 0.000000 0.000000 0.000000
									}
								}
							}
						}
					}
				}
			}
		}
	}
}
MOTION
Frames: 6
Frame Time: 0.016667
3.452600 16.955850 -3.952260 -3.510339 -11.680899 2.783944 -15.033542 12.453623 3.501382 22.644220 -2.866727 -17.266882 -12.966363 8.272104 14.848902 -0.140398 5.365817 2.515671 0.560410 0.569200 0.232560 18.250896 -11.533000 2.338654 -13.972173 -0.049909 -19.342406 2.606937 -4.014678 13.923773 -0.047615 -3.014685 3.230528 0.457590 0.085720 0.053590 -3.563610 0.427769 -7.844611 1.479118 1.028777 9.953397 1.037829 0.374341 15.137698 -0.258513 5.772440 -14.783889 9.614441 -9.724226 37.249024 5.344670 -9.785790 -9.480220 -7.495069 -33.087341 5.343508 -13.266594 -29.664022 3.175547 7.541993 -13.028279 -0.725933 -3.851019 2.881849 0.064660 0.035440 -0.012420 0.224880 8.764368 31.494561 9.891326 51.778909 55.936101 15.001689 17.109967 57.841983 6.682484 1.867918 -1.720554 0.006920 0.213080 -0.177870 0.009970 
3.465510 16.952810 -3.964230 -4.285049 -10.355970 3.410750 -15.028528 12.585044 3.311560 21.759271 -2.667483 -17.238083 -10.580359 7.294447 13.465305 -0.221461 4.906205 2.705841 0.551830 0.570820 0.213830 18.259058 -11.521336 2.377684 -13.094722 0.229737 -19.470399 2.582523 -3.884386 13.704437 -0.025467 -2.988824 3.254859 0.473520 0.139610 0.068960 -3.596184 0.294870 -7.664191 0.777961 0.989574 9.504257 0.125933 0.423955 14.688811 -0.278497 4.888684 -13.659125 8.138250 -6.301562 34.860227 5.523810 -6.980140 -9.122770 -6.878659 -30.566891 5.553471 -8.598363 -26.463366 2.270826 7.320109 -9.694446 -0.618786 -3.983156 2.861693 0.034820 0.087380 -0.043240 0.237000 8.218581 29.667423 8.575061 51.896735 55.401954 17.834435 31.117799 65.346683 16.005901 1.872587 -1.886576 -0.008960 0.217240 -0.168320 0.012090 
3.477380 16.953100 -3.966730 -4.730926 -8.169409 3.967415 -15.023845 12.698835 3.137183 20.663019 -2.449272 -17.925502 -8.091209 6.447174 12.668058 -0.308535 4.499858 2.875339 0.518590 0.541490 0.177410 18.268167 -11.506643 2.418966 -12.973172 0.510011 -19.501893 3.245713 -4.003635 13.825739 0.002358 -3.070799 3.233033 0.478760 0.210450 0.090240 -3.647100 0.161724 -7.504681 0.291361 0.996012 8.906540 -0.989407 0.570283 14.487536 -0.269185 3.781354 -12.955359 6.326063 -3.138302 32.508412 5.190240 -4.471940 -8.247280 -5.864231 -28.733931 6.071589 -5.045651 -23.836800 1.899894 7.197104 -4.571942 -0.645966 -4.176702 2.831064 -0.004720 0.155780 -0.091490 0.237810 7.156127 28.730054 7.468731 49.737282 53.647684 18.469477 40.130151 69.972065 23.203463 1.859544 -1.983922 -0.032310 0.221940 -0.134670 0.013500 
3.471730 16.964200 -3.968140 -5.457801 -6.476373 4.573229 -15.060293 12.756542 3.093716 20.549533 -2.304407 -18.866138 -6.614830 6.002467 12.076307 -0.365249 4.311783 2.945351 0.468680 0.482460 0.174300 18.252347 -11.408798 2.426587 -12.239249 0.862548 -19.511874 3.630499 -4.039268 13.897182 0.019600 -3.057892 3.248847 0.454020 0.238830 0.097350 -3.598927 -0.058563 -7.398771 -0.878677 1.032936 8.729362 -1.674130 0.572360 13.652561 -0.219014 3.473350 -12.562097 5.970134 0.124947 30.913880 4.753490 -0.892710 -7.781530 -6.022534 -26.879256 6.858811 -1.205011 -19.563628 0.614475 9.147128 -2.173670 -0.733703 -4.281643 2.797535 0.009430 0.195750 -0.107170 0.211290 7.112415 27.075166 6.482258 48.696002 50.221755 19.705157 56.499731 73.339770 34.719332 2.073735 -1.908868 -0.071160 0.222500 -0.102330 -0.019910 
3.461020 16.974860 -3.960620 -5.827910 -4.713115 5.009210 -15.093415 12.792158 3.081777 20.283284 -2.193281 -19.938770 -5.597227 5.697461 11.626203 -0.409838 4.170725 3.002908 0.413600 0.402410 0.185640 18.236962 -11.300020 2.432109 -12.122820 1.038493 -19.066067 4.475476 -4.187491 13.558986 0.028402 -3.085882 3.248815 0.414730 0.247560 0.088050 -3.559251 -0.299250 -7.325901 -1.839229 1.156143 8.537438 -2.654771 0.760937 12.923582 -0.151489 2.827047 -12.396552 4.858407 2.316847 30.007876 3.845430 1.575800 -7.455250 -5.469993 -25.138207 7.309317 1.281502 -16.442148 0.076641 9.442817 -0.928763 -0.711956 -4.336572 2.736112 0.037360 0.213180 -0.120640 0.175350 6.246095 25.708972 6.082844 47.057109 46.458238 20.186095 74.604266 75.914670 46.745641 2.599620 -1.283624 -0.115420 0.227080 -0.072960 -0.061090 
3.455990 16.986660 -3.953950 -6.369425 -3.303052 5.501803 -15.113740 12.799629 3.081663 20.084316 -2.092449 -20.945329 -4.668379 5.392566 11.105896 -0.427777 4.019653 3.054341 0.386160 0.366050 0.188380 18.232880 -11.203445 2.456567 -11.951563 1.252566 -18.978588 5.592019 -4.425697 13.577592 0.022954 -3.138138 3.232920 0.388750 0.247180 0.094860 -3.548690 -0.461395 -7.287801 -2.267933 1.399088 8.563925 -3.622622 1.074355 11.767891 0.024858 2.321356 -12.103183 3.990484 4.036929 29.047711 3.378120 3.490980 -7.430010 -5.711696 -23.566057 7.482686 3.606558 -13.902296 -0.374996 9.703864 -0.795895 -0.690025 -4.342152 2.733997 0.050400 0.222820 -0.119000 0.159270 6.000141 24.429955 5.478266 44.638606 42.314969 17.721918 91.426617 72.687561 56.069951 3.015934 -0.657212 -0.126530 0.214380 -0.060610 -0.079350 
